<?xml version="1.0" encoding="UTF-8"?>
<!DOCTYPE svg PUBLIC "-//W3C//DTD SVG 1.1//EN" "http://www.w3.org/Graphics/SVG/1.1/DTD/svg11.dtd">
<!-- Creator: CorelDRAW 2019 (64-Bit) -->
<svg xmlns="http://www.w3.org/2000/svg" xml:space="preserve" width="0.787402in" height="0.787402in" version="1.1" style="shape-rendering:geometricPrecision; text-rendering:geometricPrecision; image-rendering:optimizeQuality; fill-rule:evenodd; clip-rule:evenodd"
viewBox="0 0 787.4 787.4"
 xmlns:xlink="http://www.w3.org/1999/xlink">
 <defs>
  <style type="text/css">
   <![CDATA[
    .fil0 {fill:blue;fill-rule:nonzero}
   ]]>
  </style>
 </defs>
 <g id="Layer_x0020_1">
  <metadata id="CorelCorpID_0Corel-Layer"/>
  <path class="fil0" d="M409.45 715.48c-2.41,1.63 -5.05,2.94 -7.82,3.88 -3.41,1.2 -6.96,1.81 -10.47,1.81 -3.52,0 -7.07,-0.61 -10.48,-1.78 -2.76,-0.94 -5.43,-2.28 -7.91,-3.98 -74.39,-44.48 -170.7,-110.11 -243.03,-189.51 -75.58,-82.97 -125.31,-180.95 -100.08,-286.75l0.06 0.02c9.96,-44.05 29.79,-79.51 56.02,-106.15 25.27,-25.65 56.36,-42.98 90.22,-51.84 33.38,-8.73 69.42,-9.16 105.11,-1.14 37.28,8.38 74.22,25.99 107.34,52.97 18.25,-19.19 42.37,-33.81 68.56,-43.77 39,-14.83 83.41,-19.49 119.39,-13.44 43.22,7.23 79.29,23.88 108.28,49.22 29.3,25.61 50.89,59.81 64.83,101.83l0.47 1.23c30.18,111.07 -17.88,210.65 -93.61,294.56 -72.52,80.36 -170.52,146.06 -246.87,192.84zm-243.88 -222.19c66.43,72.91 155.1,134.12 225.49,176.66 72.38,-44.69 162.81,-106.13 229.24,-179.74 65.67,-72.77 107.75,-157.66 82.81,-249.43l0.06 -0.01c-11.18,-33.1 -27.95,-59.75 -50.38,-79.35 -22.12,-19.33 -50.23,-32.14 -84.4,-37.85 -28.04,-4.71 -63.12,-0.9 -94.36,10.98 -26.29,10 -49.24,25.55 -61.5,46.17l-15.81 26.61 -22.01 -21.68c-31.25,-30.79 -67.67,-50.18 -104.25,-58.4 -28.15,-6.33 -56.39,-6.04 -82.36,0.75 -25.5,6.67 -48.88,19.7 -67.85,38.95 -20.19,20.5 -35.54,48.23 -43.38,83.1l0 0.28c-20.76,87.07 22.91,170.74 88.7,242.96z"/>
 </g>
</svg>
